{
  "accessors": [
    {
      "bufferView": 2,
      "componentType": 5126,
      "count": 475,
      "max": [
        12.363382339477539,
        34.620880126953125,
        20.871372222900391
      ],
      "min": [
        -11.759834289550781,
        2.5892293453216553,
        -14.80372142791748
      ],
      "type": "VEC3"
    },
    {
      "bufferView": 2,
      "byteOffset": 5700,
      "componentType": 5126,
      "count": 475,
      "max": [
        0.99428492784500122,
        1,
        0.99965691566467285
      ],
      "min": [
        -0.994284987449646,
        -1,
        -0.99994981288909912
      ],
      "type": "VEC3"
    },
    {
      "bufferView": 3,
      "componentType": 5126,
      "count": 475,
      "max": [
        1,
        0.97683066129684448,
        0.97561126947402954,
        1
      ],
      "min": [
        -0.96396708488464355,
        -0.99994635581970215,
        -0.99996334314346313,
        -1
      ],
      "type": "VEC4"
    },
    {
      "bufferView": 1,
      "componentType": 5126,
      "count": 475,
      "max": [
        0.99609434604644775,
        0.99179106950759888
      ],
      "min": [
        0.0049410760402679443,
        0.010549873113632202
      ],
      "type": "VEC2"
    },
    {
      "bufferView": 1,
      "byteOffset": 3800,
      "componentType": 5126,
      "count": 475,
      "max": [
        0.99609434604644775,
        0.99179106950759888
      ],
      "min": [
        0.0049410760402679443,
        0.010549873113632202
      ],
      "type": "VEC2"
    },
    {
      "bufferView": 1,
      "byteOffset": 7600,
      "componentType": 5126,
      "count": 475,
      "max": [
        0.99609434604644775,
        0.99179106950759888
      ],
      "min": [
        0.0049410760402679443,
        0.010549873113632202
      ],
      "type": "VEC2"
    },
    {
      "bufferView": 1,
      "byteOffset": 11400,
      "componentType": 5126,
      "count": 475,
      "max": [
        0.99609434604644775,
        0.99179106950759888
      ],
      "min": [
        0.0049410760402679443,
        0.010549873113632202
      ],
      "type": "VEC2"
    },
    {
      "bufferView": 1,
      "byteOffset": 15200,
      "componentType": 5126,
      "count": 475,
      "max": [
        0.99609434604644775,
        0.99179106950759888
      ],
      "min": [
        0.0049410760402679443,
        0.010549873113632202
      ],
      "type": "VEC2"
    },
    {
      "bufferView": 0,
      "componentType": 5125,
      "count": 1662,
      "max": [
        474
      ],
      "min": [
        0
      ],
      "type": "SCALAR"
    }
  ],
  "asset": {
    "extras": {
      "author": "j-conrad (https://sketchfab.com/j-conrad)",
      "license": "CC-BY-4.0 (http://creativecommons.org/licenses/by/4.0/)",
      "source": "https://sketchfab.com/models/a4c500d7358a4a199b6a5cd35f416466",
      "title": "Ducky_MozillaHubs"
    },
    "generator": "Sketchfab-3.32.3",
    "version": "2.0"
  },
  "bufferViews": [
    {
      "buffer": 0,
      "byteLength": 6648,
      "byteOffset": 0,
      "name": "floatBufferViews",
      "target": 34963
    },
    {
      "buffer": 0,
      "byteLength": 19000,
      "byteOffset": 6648,
      "byteStride": 8,
      "name": "floatBufferViews",
      "target": 34962
    },
    {
      "buffer": 0,
      "byteLength": 11400,
      "byteOffset": 25648,
      "byteStride": 12,
      "name": "floatBufferViews",
      "target": 34962
    },
    {
      "buffer": 0,
      "byteLength": 7600,
      "byteOffset": 37048,
      "byteStride": 16,
      "name": "floatBufferViews",
      "target": 34962
    }
  ],
  "buffers": [
    {
      "byteLength": 44648,
      "uri": "scene.bin"
    }
  ],
  "images": [
    {
      "uri": "textures/DuckyMat_metallicRoughness.png"
    },
    {
      "uri": "textures/DuckyMat_normal.png"
    },
    {
      "uri": "textures/DuckyMat_baseColor.jpeg"
    }
  ],
  "materials": [
    {
      "doubleSided": false,
      "name": "DuckyMat",
      "normalTexture": {
        "index": 1,
        "scale": 1,
        "texCoord": 0
      },
      "occlusionTexture": {
        "index": 0,
        "strength": 1,
        "texCoord": 0
      },
      "pbrMetallicRoughness": {
        "baseColorFactor": [
          1,
          1,
          1,
          1
        ],
        "baseColorTexture": {
          "index": 2,
          "texCoord": 0
        },
        "metallicFactor": 1,
        "metallicRoughnessTexture": {
          "index": 0,
          "texCoord": 0
        },
        "roughnessFactor": 1
      }
    }
  ],
  "meshes": [
    {
      "name": "Ducky_DuckyMat_0",
      "primitives": [
        {
          "attributes": {
            "NORMAL": 1,
            "POSITION": 0,
            "TANGENT": 2,
            "TEXCOORD_0": 3,
            "TEXCOORD_1": 4,
            "TEXCOORD_2": 5,
            "TEXCOORD_3": 6,
            "TEXCOORD_4": 7
          },
          "indices": 8,
          "material": 0,
          "mode": 4
        }
      ]
    }
  ],
  "nodes": [
    {
      "children": [
        1
      ],
      "name": "RootNode (gltf orientation matrix)",
      "rotation": [
        -0.70710678118654746,
        -0,
        -0,
        0.70710678118654757
      ]
    },
    {
      "children": [
        2
      ],
      "name": "RootNode (model correction matrix)"
    },
    {
      "children": [
        3
      ],
      "matrix": [
        1,
        0,
        0,
        0,
        0,
        0,
        1,
        0,
        0,
        -1,
        0,
        0,
        0,
        0,
        0,
        1
      ],
      "name": "ed3d3236066a404ca3cd9ec4e3be5927.fbx"
    },
    {
      "children": [
        4
      ],
      "name": "RootNode"
    },
    {
      "children": [
        5
      ],
      "name": "Ducky"
    },
    {
      "mesh": 0,
      "name": "Ducky_DuckyMat_0"
    }
  ],
  "samplers": [
    {
      "magFilter": 9729,
      "minFilter": 9987,
      "wrapS": 10497,
      "wrapT": 10497
    }
  ],
  "scene": 0,
  "scenes": [
    {
      "name": "OSG_Scene",
      "nodes": [
        0
      ]
    }
  ],
  "textures": [
    {
      "sampler": 0,
      "source": 0
    },
    {
      "sampler": 0,
      "source": 1
    },
    {
      "sampler": 0,
      "source": 2
    }
  ]
}

